<svg width="185" height="294" viewBox="0 0 185 294" fill="none" xmlns="http://www.w3.org/2000/svg">
<path d="M0 45.2705L50.2705 -5H99.6667V45.2705L50.2705 94.6667V45.2705H0Z" fill="white"/>
<path d="M0 144.937L50.2705 94.6665H99.6667V144.937L50.2705 194.333V144.937H0Z" fill="white"/>
<path d="M0 244.604L50.2705 194.333H99.6667V244.604L50.2705 294V244.604H0Z" fill="white"/>
<path d="M99.6667 45.2705L149.937 -5H199.333V45.2705L149.937 94.6667V45.2705H99.6667Z" fill="white"/>
<path d="M99.6667 144.937L149.937 94.6665H199.333V144.937L149.937 194.333V144.937H99.6667Z" fill="white"/>
<path d="M99.6667 244.604L149.937 194.333H199.333V244.604L149.937 294V244.604H99.6667Z" fill="white"/>
</svg>
