<svg width="114" height="228" viewBox="0 0 114 228" fill="none" xmlns="http://www.w3.org/2000/svg">
<path d="M-38 38.3333L0.333336 0H38V38.3333L0.333336 76V38.3333H-38Z" fill="white"/>
<path d="M-38 114.333L0.333336 76H38V114.333L0.333336 152V114.333H-38Z" fill="white"/>
<path d="M-38 190.333L0.333336 152H38V190.333L0.333336 228V190.333H-38Z" fill="white"/>
<path d="M38 38.3333L76.3333 0H114V38.3333L76.3333 76V38.3333H38Z" fill="white"/>
<path d="M38 114.333L76.3333 76H114V114.333L76.3333 152V114.333H38Z" fill="white"/>
<path d="M38 190.333L76.3333 152H114V190.333L76.3333 228V190.333H38Z" fill="white"/>
</svg>
